<?xml version="1.0" standalone="no"?><!DOCTYPE svg PUBLIC "-//W3C//DTD SVG 1.1//EN" "http://www.w3.org/Graphics/SVG/1.1/DTD/svg11.dtd"><svg t="1487768925514" class="icon" style="" viewBox="0 0 1024 1024" version="1.1" xmlns="http://www.w3.org/2000/svg" p-id="3693" xmlns:xlink="http://www.w3.org/1999/xlink" width="200" height="200"><defs><style type="text/css"></style></defs><path d="M900.589641 899.879777C900.589641 908.447108 893.629705 915.392765 885.046056 915.392765 876.460367 915.392765 869.50247 908.447108 869.50247 899.879777 869.50247 899.877737 869.50247 899.877737 869.50247 899.877737L869.50247 899.877737 869.50247 248.242486C869.50247 239.673116 862.542534 232.727458 853.958884 232.727458L714.066614 232.727458 714.066614 318.060112 682.979442 318.060112 682.979442 232.727458 341.020558 232.727458 341.020558 318.060112 309.933386 318.060112 309.933386 232.727458 170.041116 232.727458C161.455426 232.727458 154.49753 239.673116 154.49753 248.242486L154.49753 830.060112 776.240956 830.060112C776.240956 830.060112 777.952382 830.060112 784.012749 830.060112 792.596398 830.060112 799.556335 837.005769 799.556335 845.575139 799.556335 854.14451 792.596398 861.090167 784.012749 861.090167 777.952382 861.090167 776.240956 861.090167 776.240956 861.090167L154.49753 861.090167 154.49753 930.907793C154.49753 965.183235 182.333195 992.969944 216.671873 992.969944L690.751235 992.969944 690.751235 992.969944 830.643506 992.969944C839.227155 992.969944 846.187092 999.915602 846.187092 1008.484972 846.187092 1017.054343 839.227155 1024 830.643506 1024 829.754135 1024 828.897402 1023.881689 828.048829 1023.7389 826.331283 1023.855171 824.619857 1024 822.871713 1024L201.128287 1024C158.20596 1024 123.410359 989.267633 123.410359 946.424861L123.410359 232.727458C123.410359 215.588717 137.328191 201.697402 154.49753 201.697402L309.933386 201.697402 309.933386 186.182375C309.933386 83.356048 393.442422 0 496.456414 0L527.543586 0C630.557578 0 714.066614 83.356048 714.066614 186.182375L714.066614 201.697402 869.50247 201.697402C886.671809 201.697402 900.589641 215.588717 900.589641 232.727458L900.589641 899.877737 900.589641 899.877737C900.589641 899.877737 900.589641 899.877737 900.589641 899.879777ZM682.979442 201.179283C682.979442 106.922327 606.428303 30.513976 512 30.513976L512 30.513976C417.569657 30.513976 341.020558 106.922327 341.020558 201.179283L341.020558 201.697402 682.979442 201.697402 682.979442 201.179283Z" p-id="3694" fill="#2c2c2c"></path></svg>